<mxfile host="app.diagrams.net" agent="Mozilla/5.0 (Windows NT 10.0; Win64; x64) AppleWebKit/537.36 (KHTML, like Gecko) Chrome/128.0.0.0 Safari/537.36" version="24.7.13">
  <diagram name="Page-1" id="ks7quxxx4boysfLApYBP">
    <mxGraphModel dx="1018" dy="719" grid="1" gridSize="10" guides="1" tooltips="1" connect="1" arrows="1" fold="1" page="1" pageScale="1" pageWidth="850" pageHeight="1100" math="0" shadow="0">
      <root>
        <mxCell id="0" />
        <mxCell id="1" parent="0" />
        <mxCell id="7QC77WN1XvG1qAEx9W9q-2" value="Book" style="rounded=0;whiteSpace=wrap;html=1;" vertex="1" parent="1">
          <mxGeometry x="205" y="380" width="120" height="60" as="geometry" />
        </mxCell>
        <mxCell id="7QC77WN1XvG1qAEx9W9q-3" value="&lt;u&gt;ISBN&lt;/u&gt;&lt;div&gt;&lt;br&gt;&lt;/div&gt;" style="ellipse;whiteSpace=wrap;html=1;" vertex="1" parent="1">
          <mxGeometry x="65" y="460" width="120" height="80" as="geometry" />
        </mxCell>
        <mxCell id="7QC77WN1XvG1qAEx9W9q-4" value="Title&lt;div&gt;&lt;br&gt;&lt;/div&gt;" style="ellipse;whiteSpace=wrap;html=1;" vertex="1" parent="1">
          <mxGeometry x="205" y="460" width="120" height="80" as="geometry" />
        </mxCell>
        <mxCell id="7QC77WN1XvG1qAEx9W9q-7" value="" style="endArrow=none;html=1;rounded=0;fontSize=12;startSize=8;endSize=8;curved=1;exitX=0.5;exitY=0;exitDx=0;exitDy=0;entryX=0.5;entryY=1;entryDx=0;entryDy=0;" edge="1" parent="1" source="7QC77WN1XvG1qAEx9W9q-3" target="7QC77WN1XvG1qAEx9W9q-2">
          <mxGeometry width="50" height="50" relative="1" as="geometry">
            <mxPoint x="565" y="490" as="sourcePoint" />
            <mxPoint x="575" y="550" as="targetPoint" />
          </mxGeometry>
        </mxCell>
        <mxCell id="7QC77WN1XvG1qAEx9W9q-8" value="" style="endArrow=none;html=1;rounded=0;fontSize=12;startSize=8;endSize=8;curved=1;exitX=0.5;exitY=0;exitDx=0;exitDy=0;entryX=0.5;entryY=1;entryDx=0;entryDy=0;" edge="1" parent="1" source="7QC77WN1XvG1qAEx9W9q-4" target="7QC77WN1XvG1qAEx9W9q-2">
          <mxGeometry width="50" height="50" relative="1" as="geometry">
            <mxPoint x="565" y="490" as="sourcePoint" />
            <mxPoint x="615" y="440" as="targetPoint" />
          </mxGeometry>
        </mxCell>
        <mxCell id="7QC77WN1XvG1qAEx9W9q-15" value="Publishing date" style="ellipse;whiteSpace=wrap;html=1;" vertex="1" parent="1">
          <mxGeometry x="345" y="470" width="120" height="80" as="geometry" />
        </mxCell>
        <mxCell id="7QC77WN1XvG1qAEx9W9q-16" value="" style="endArrow=none;html=1;rounded=0;fontSize=12;startSize=8;endSize=8;curved=1;entryX=0.5;entryY=1;entryDx=0;entryDy=0;exitX=0.5;exitY=0;exitDx=0;exitDy=0;" edge="1" parent="1" source="7QC77WN1XvG1qAEx9W9q-15" target="7QC77WN1XvG1qAEx9W9q-2">
          <mxGeometry width="50" height="50" relative="1" as="geometry">
            <mxPoint x="445" y="400" as="sourcePoint" />
            <mxPoint x="495" y="350" as="targetPoint" />
          </mxGeometry>
        </mxCell>
        <mxCell id="7QC77WN1XvG1qAEx9W9q-18" value="Customer" style="rounded=0;whiteSpace=wrap;html=1;" vertex="1" parent="1">
          <mxGeometry x="475" y="100" width="120" height="60" as="geometry" />
        </mxCell>
        <mxCell id="7QC77WN1XvG1qAEx9W9q-19" value="" style="endArrow=none;html=1;rounded=0;fontSize=12;startSize=8;endSize=8;curved=1;entryX=0.5;entryY=1;entryDx=0;entryDy=0;exitX=0.5;exitY=0;exitDx=0;exitDy=0;" edge="1" parent="1" source="7QC77WN1XvG1qAEx9W9q-20" target="7QC77WN1XvG1qAEx9W9q-18">
          <mxGeometry width="50" height="50" relative="1" as="geometry">
            <mxPoint x="44.9999999999999" y="217.36" as="sourcePoint" />
            <mxPoint x="505.64" y="290" as="targetPoint" />
          </mxGeometry>
        </mxCell>
        <mxCell id="7QC77WN1XvG1qAEx9W9q-20" value="&lt;u&gt;ID&lt;/u&gt;" style="ellipse;whiteSpace=wrap;html=1;" vertex="1" parent="1">
          <mxGeometry x="310" y="210" width="120" height="80" as="geometry" />
        </mxCell>
        <mxCell id="7QC77WN1XvG1qAEx9W9q-22" value="Name" style="ellipse;whiteSpace=wrap;html=1;" vertex="1" parent="1">
          <mxGeometry x="485" y="210" width="120" height="80" as="geometry" />
        </mxCell>
        <mxCell id="7QC77WN1XvG1qAEx9W9q-23" value="" style="endArrow=none;html=1;rounded=0;fontSize=12;startSize=8;endSize=8;curved=1;entryX=0.5;entryY=1;entryDx=0;entryDy=0;exitX=0.5;exitY=0;exitDx=0;exitDy=0;" edge="1" parent="1" source="7QC77WN1XvG1qAEx9W9q-22" target="7QC77WN1XvG1qAEx9W9q-18">
          <mxGeometry width="50" height="50" relative="1" as="geometry">
            <mxPoint x="165.64" y="210" as="sourcePoint" />
            <mxPoint x="505.64" y="290" as="targetPoint" />
          </mxGeometry>
        </mxCell>
        <mxCell id="7QC77WN1XvG1qAEx9W9q-25" value="Loyalty points" style="ellipse;whiteSpace=wrap;html=1;" vertex="1" parent="1">
          <mxGeometry x="665" y="220" width="120" height="80" as="geometry" />
        </mxCell>
        <mxCell id="7QC77WN1XvG1qAEx9W9q-26" value="" style="endArrow=none;html=1;rounded=0;fontSize=12;startSize=8;endSize=8;curved=1;entryX=0.5;entryY=1;entryDx=0;entryDy=0;exitX=0.5;exitY=0;exitDx=0;exitDy=0;" edge="1" parent="1" source="7QC77WN1XvG1qAEx9W9q-25" target="7QC77WN1XvG1qAEx9W9q-18">
          <mxGeometry width="50" height="50" relative="1" as="geometry">
            <mxPoint x="435.64" y="220" as="sourcePoint" />
            <mxPoint x="505.64" y="290" as="targetPoint" />
          </mxGeometry>
        </mxCell>
        <mxCell id="7QC77WN1XvG1qAEx9W9q-29" value="Order" style="rounded=0;whiteSpace=wrap;html=1;" vertex="1" parent="1">
          <mxGeometry x="105" y="110" width="90" height="40" as="geometry" />
        </mxCell>
        <mxCell id="7QC77WN1XvG1qAEx9W9q-30" value="Placed" style="rhombus;whiteSpace=wrap;html=1;" vertex="1" parent="1">
          <mxGeometry x="255" y="100" width="120" height="60" as="geometry" />
        </mxCell>
        <mxCell id="7QC77WN1XvG1qAEx9W9q-31" value="" style="endArrow=classic;html=1;rounded=0;fontSize=12;startSize=8;endSize=8;curved=1;exitX=0;exitY=0.5;exitDx=0;exitDy=0;entryX=1;entryY=0.5;entryDx=0;entryDy=0;" edge="1" parent="1" source="7QC77WN1XvG1qAEx9W9q-18" target="7QC77WN1XvG1qAEx9W9q-30">
          <mxGeometry width="50" height="50" relative="1" as="geometry">
            <mxPoint x="385" y="440" as="sourcePoint" />
            <mxPoint x="435" y="390" as="targetPoint" />
          </mxGeometry>
        </mxCell>
        <mxCell id="7QC77WN1XvG1qAEx9W9q-32" value="" style="endArrow=classic;html=1;rounded=0;fontSize=12;startSize=8;endSize=8;curved=1;entryX=0;entryY=0.5;entryDx=0;entryDy=0;exitX=1;exitY=0.5;exitDx=0;exitDy=0;strokeWidth=3;" edge="1" parent="1" source="7QC77WN1XvG1qAEx9W9q-29" target="7QC77WN1XvG1qAEx9W9q-30">
          <mxGeometry width="50" height="50" relative="1" as="geometry">
            <mxPoint x="385" y="440" as="sourcePoint" />
            <mxPoint x="435" y="390" as="targetPoint" />
          </mxGeometry>
        </mxCell>
        <mxCell id="7QC77WN1XvG1qAEx9W9q-33" value="Contains" style="rhombus;whiteSpace=wrap;html=1;" vertex="1" parent="1">
          <mxGeometry x="115" y="240" width="110" height="40" as="geometry" />
        </mxCell>
        <mxCell id="7QC77WN1XvG1qAEx9W9q-34" value="" style="endArrow=none;html=1;rounded=0;fontSize=12;startSize=8;endSize=8;curved=1;entryX=0.5;entryY=1;entryDx=0;entryDy=0;exitX=0.5;exitY=0;exitDx=0;exitDy=0;strokeWidth=3;" edge="1" parent="1" source="7QC77WN1XvG1qAEx9W9q-33" target="7QC77WN1XvG1qAEx9W9q-29">
          <mxGeometry width="50" height="50" relative="1" as="geometry">
            <mxPoint x="385" y="440" as="sourcePoint" />
            <mxPoint x="275" y="210" as="targetPoint" />
          </mxGeometry>
        </mxCell>
        <mxCell id="7QC77WN1XvG1qAEx9W9q-35" value="" style="endArrow=none;html=1;rounded=0;fontSize=12;startSize=8;endSize=8;curved=1;entryX=0.5;entryY=1;entryDx=0;entryDy=0;exitX=0.5;exitY=0;exitDx=0;exitDy=0;" edge="1" parent="1" source="7QC77WN1XvG1qAEx9W9q-2" target="7QC77WN1XvG1qAEx9W9q-33">
          <mxGeometry width="50" height="50" relative="1" as="geometry">
            <mxPoint x="385" y="440" as="sourcePoint" />
            <mxPoint x="435" y="390" as="targetPoint" />
          </mxGeometry>
        </mxCell>
        <mxCell id="7QC77WN1XvG1qAEx9W9q-36" value="Author" style="ellipse;whiteSpace=wrap;html=1;" vertex="1" parent="1">
          <mxGeometry x="490" y="470" width="120" height="80" as="geometry" />
        </mxCell>
        <mxCell id="7QC77WN1XvG1qAEx9W9q-37" value="" style="endArrow=none;html=1;rounded=0;fontSize=12;startSize=8;endSize=8;curved=1;exitX=0.5;exitY=1;exitDx=0;exitDy=0;entryX=0.5;entryY=0;entryDx=0;entryDy=0;" edge="1" parent="1" source="7QC77WN1XvG1qAEx9W9q-2" target="7QC77WN1XvG1qAEx9W9q-36">
          <mxGeometry width="50" height="50" relative="1" as="geometry">
            <mxPoint x="390" y="380" as="sourcePoint" />
            <mxPoint x="440" y="330" as="targetPoint" />
          </mxGeometry>
        </mxCell>
      </root>
    </mxGraphModel>
  </diagram>
</mxfile>
